/* XPM */
static char *brks4[] = {
/* columns rows colors chars-per-pixel */
"64 64 179 2 ",
"   c #1D1D1D",
".  c gray18",
"X  c #3C3C3C",
"o  c #3F3F3F",
"O  c #414141",
"+  c gray26",
"@  c #434343",
"#  c #444444",
"$  c #454545",
"%  c #464646",
"&  c #484848",
"*  c #494949",
"=  c #4B4B4B",
"-  c gray31",
";  c #515151",
":  c #535353",
">  c #555555",
",  c #565656",
"<  c gray34",
"1  c #585858",
"2  c gray35",
"3  c #5A5A5A",
"4  c #5B5B5B",
"5  c #5D5D5D",
"6  c gray37",
"7  c #5F5F5F",
"8  c #606060",
"9  c gray38",
"0  c #626262",
"q  c gray39",
"w  c #646464",
"e  c #656565",
"r  c gray40",
"t  c #676767",
"y  c #686868",
"u  c DimGray",
"i  c #6A6A6A",
"p  c gray42",
"a  c #6C6C6C",
"s  c #6D6D6D",
"d  c gray43",
"f  c #6F6F6F",
"g  c gray44",
"h  c #717171",
"j  c #727272",
"k  c gray45",
"l  c #747474",
"z  c gray46",
"x  c #767676",
"c  c #777777",
"v  c gray47",
"b  c #797979",
"n  c gray48",
"m  c #7B7B7B",
"M  c #7C7C7C",
"N  c gray49",
"B  c #7E7E7E",
"V  c gray50",
"C  c #808080",
"Z  c #818181",
"A  c gray51",
"S  c #838383",
"D  c #848484",
"F  c gray52",
"G  c #868686",
"H  c gray53",
"J  c #888888",
"K  c #898989",
"L  c gray54",
"P  c #8B8B8B",
"I  c gray55",
"U  c #8D8D8D",
"Y  c #8E8E8E",
"T  c gray56",
"R  c #909090",
"E  c gray57",
"W  c #929292",
"Q  c #939393",
"!  c gray58",
"~  c #959595",
"^  c gray59",
"/  c #979797",
"(  c #989898",
")  c gray60",
"_  c #9A9A9A",
"`  c #9B9B9B",
"'  c gray61",
"]  c #9D9D9D",
"[  c gray62",
"{  c #9F9F9F",
"}  c #A0A0A0",
"|  c gray63",
" . c #A2A2A2",
".. c gray64",
"X. c #A4A4A4",
"o. c #A5A5A5",
"O. c gray65",
"+. c #A7A7A7",
"@. c gray66",
"#. c #A9A9A9",
"$. c #AAAAAA",
"%. c gray67",
"&. c #ACACAC",
"*. c gray68",
"=. c #AEAEAE",
"-. c #AFAFAF",
";. c gray69",
":. c #B1B1B1",
">. c #B2B2B2",
",. c gray70",
"<. c #B4B4B4",
"1. c gray71",
"2. c #B6B6B6",
"3. c #B7B7B7",
"4. c gray72",
"5. c #B9B9B9",
"6. c gray73",
"7. c #BBBBBB",
"8. c #BCBCBC",
"9. c gray74",
"0. c gray",
"q. c gray75",
"w. c #C0C0C0",
"e. c #C1C1C1",
"r. c gray76",
"t. c #C3C3C3",
"y. c gray77",
"u. c #C5C5C5",
"i. c #C6C6C6",
"p. c gray78",
"a. c #C8C8C8",
"s. c gray79",
"d. c #CACACA",
"f. c #CBCBCB",
"g. c gray80",
"h. c #CDCDCD",
"j. c #CECECE",
"k. c gray81",
"l. c #D0D0D0",
"z. c gray82",
"x. c #D2D2D2",
"c. c LightGray",
"v. c gray83",
"b. c #D5D5D5",
"n. c gray84",
"m. c #D7D7D7",
"M. c #D8D8D8",
"N. c gray85",
"B. c #DADADA",
"V. c gray86",
"C. c gainsboro",
"Z. c #DDDDDD",
"A. c gray87",
"S. c #DFDFDF",
"D. c gray88",
"F. c #E1E1E1",
"G. c #E2E2E2",
"H. c gray89",
"J. c #E4E4E4",
"K. c gray90",
"L. c #E6E6E6",
"P. c #E7E7E7",
"I. c gray91",
"U. c #E9E9E9",
"Y. c #EAEAEA",
"T. c gray92",
"R. c #ECECEC",
"E. c gray93",
"W. c #EEEEEE",
"Q. c #EFEFEF",
"!. c #F1F1F1",
"~. c gray95",
"^. c #F3F3F3",
"/. c gray96",
"(. c #F6F6F6",
"). c gray97",
"_. c #F9F9F9",
"`. c #FBFBFB",
"'. c white",
/* pixels */
"i ] $...] E D b b I ` ] ] ....] $.&.&.;.&.&.&.;.;.;.;.;.;.;.<.I P $.X.X.$...$.X.X.<.<.;.X.;.;.5.;.;.$.5.5.;.<.&.&.&.<.<.&.<.<.z ",
"&.'.'.'.'.T.f.f.f.T.).^.^.'.'.'.'.'.'.'.'.'.'.'.'.'._.).^.^.).;.&.C.G.C.^._.).^.R.'.'.).T.C.l.C.C.C.T.).).P.P.P.P.G.M.P.R.'._.&.",
"&.'.'.'.P.R.j.f.l.R.'.'.'.'.'.'.'.'.'.'.'.'.'.'.'._.P.P.P.T.^.;.$.l.M.j.b.'.).^.R.'.'.^.).C.C.t.t.5.b.P.).P.P.P.P.G.G.C.C._.).X.",
";.'.'.).T.R.C.j.f.R.'.'.'.'.'.'.'.'.'.'.'.'.'.'._.G.T.T.R.R.T.<.X.b.b.b.l.R.^.^.R.^.^.R.C.M.j.<.9.t.5.G.).^.G.M.M.C.C.G.T.^.T.] ",
"&.'.'.R.C.M.^.G.f.T.'.'.'._.P.^.'.'.G.)._.'.'._.G.P.P.P.T.^.R.<...j.b.b.l.G.).^.).R.G.G.M.b.5.t.9.X.;.b.C._.^.M.C.M.C._.).C.b.] ",
".._.).T.j.l.M.M.i.T.'.'.R.P.P.G.).).R.'.'.'._.C.C.T.G.T.R.P.R.$.` M.M.b.b.C.T.T.R.C.M.M.b.<.;.$.$.E $.9.G.P.R.C.G.G.G.'._.G.C.] ",
"..R.T.C.i.t.l.j.i.T.'.R.P.G.G.G.C.).'.'.'.'.P.P.j.P.T.).'.).T.$.^ j.b.l.l.b.b.M.M.M.C.M.M.<.^ E ^ ` ^ 9.i.G.C.P.P.M.C.^.'.M.M.` ",
"..T.T.l.&.$.t.j.j.R.T.G.i.M.G.T.^._.'.'.'.'.P.G.P.P.T.'.'.^.T.X.` b.b.l.M.b.f.j.b.j.b.M.j.;.I E E ^ I X.5.t.b.b.C.G.M.T.P.b.b.I ",
"$.R.l.i.&.&.;.i.j.C.R.P.f.M.T.R.'.'.'.'.'.'.'.P.C.T._.'.'.^.T.X.^ l.M.M.M.t.;.;.;.;.;.t.5...I E ^ E ^ E &.5.t.<.9.G.C.G.C.f.5.X.",
"$.T.j.t.] I $.&.i.l.R.T.C.T.T._.'.'.'.'.'.'._.T.P.^.'.'.'.R.T...^ l.l.l.M.i.<.5.5.<.&.&.;.$.] ^ ^ ^ ^ I ` <.<.5.5.M.G.b.G.G.M.X.",
"X.T.f.5.] ` ;.;.;.j.R.T.T.T._.'.'.'.'.'.'.'.P.P.T.^.'.'.'.^.R.$.` l.l.M.l.i.;.<.9.X.E I E <.t.$.^ ^ E ^ ] 5.<.9.5.C.G.P.C.M.C...",
"X.R.C.j.$.$.<.&.$.b.P.T.T.P.).).).)._.'.'.R.C.T.G.^.'.'.'.^.T.$.E b.b.b.M.l.t.<.5.;.` ] 9.;.t.i.$.` ^ ^ 9.5.9.9.<.C.G.b.M.M.C.] ",
"..^.^.l.5.;.l.t.&.M.^.).P.G.G.T.P.P.G.).'.R.G.T.R.).'.'.'.R.R.$.&.R.R.G.l.b.M.t.<.9.t.5.9.j.C.C.t.<.^ &.9.f.b.<.5.G.b.G.M.G.C...",
"$.^.R.P.f.9.l.l.j.M.'.'.R.T.T.T.T.P.G.P._.G.P.P.P.R.'.'._.P.T.$.$.^.).M.l.j.l.i.5.;.&.$.;.t.b.M.i.;.^ ;.<.G.C.;.<.C.C.M.M.C.l.] ",
"X.^._.C.t.i.j.f.l.^.'.)._.^.P.P.T.R.G.T.P.P.R.T.P.).'._.P.P.T.$.$.R.R.C.l.l.b.i.<.X.I E ..;.5.5.9.X.E ;.5.M.C.9.<.M.M.C.l.i.<.S ",
"I P.G.j.9.9.t.t.t.G.^.R.T.R.C.G.M.M.M.M.G.C.C.M.G.R.R.P.M.M.b.P P C.P.f.t.9.i.;.&.$.P I P $.&.<.5.;.X.;.5.j.b.t.t.j.i.l.<.$.$.g ",
"r 7 3 0 0 7 0 0 r 0 7 3 , r i , g S V V V V g 0 0 i g g g a a a i i r a a a g D P P I P D I I V V P P P P P D S i a g a g g g g ",
"^.G.M.^.^.R.R._.'.'._.G.i.C.T.` X.T.f.j.j.j.j.f.M.).'._.'.'.'.).R.C.b.R.R._.R._.'.'.'.R.b.P.).$.&.^.b.b.M.C.b.M.P._.'._.'.'.'.^.",
"P.P.R.R.R.^.'._.T.G.T.C.j.C.R.$.9.R.M.f.T.T.T.T.R.).'.'.'.'.'.R.G.C.^.^.^._.'.'.P.R.R.T.b.G.).<.5.^.P.j.^.R.R.^.R.).'.'.'.'.'.R.",
"T.P.T.T.).^._.T.G.C.R.b.j.G.).X.5.T.C.M.R.^.P.R.T.^.'.'.'.'.'.G.P.G._.R.T.^._.R.G.G._.b.b.G.R.5.9.^.C.b.).^.R.R.^.).'.'.'.'.'.T.",
"R.C.j.P.R.R.).C.j.b.l.l.j.C.R.$.<.P.j.G.T.P.R.P.P.^.'.'.P.P.C.T.T.C.l.T.^.R.T.T.j.b.M.b.l.P.).9.9.).l.P.^.R.R.R.T.).'.'.T.T.T.G.",
"^.P.j.P.R.R.C.l.9.5.l.j.l.b.P.] <.l.i.M.R.P.G.G.R._.'.'.P.R.T.).R.T.b.P.R.T.M.b.t.5.b.M.G.T.P.&.5.C.j.P.R.R.T.^.R._.'.'.G.P.T.P.",
"b.P.^.P.l.j.j.l.b.j.;.b.j.f.f.E ..j.f.M.P.T.'.'.'.'.'.'.P.T.R.R.b.G.^.R.l.b.f.j.b.j.<.M.M.l.l.$.&.b.l.G.R.R.'.'.'.'.'.'.G.R.T.T.",
"P.R.^.C.b.t.;.b.l.b.f.l.j.j.j.` X.f.f.l.T._.'._.'.'.'.'.T.T.R.R.b.G.^.M.l.9.;.b.b.M.i.b.C.b.M.&.X.b.b.M.R._.'._._.'.'.'.T.T.).R.",
"^.R.b.j.b.t.;.l.T.b.b.b.b.b.R.....l.j.b.T.).'.'.'.'._.^.'.^.R.^.R.P.l.l.b.i.&.b.T.M.M.l.C.M.R.<.$.M.b.C.R.).'.'.'._._.).'.).T.T.",
"^.C.b.l.M.9.;.l.l.l.l.j.l.C.'...] j.i.M.P._.'.'.'._.R.G.'.R.).R.^.M.j.M.b.t.5.b.C.b.C.M.b.P.^.9.X.b.l.C.R._.'.'.'._.T.P.).R.R.R.",
"l.l.i.;.5.<.;.;.i.f.;.j.l.G.^.$...G.l.T.).'.'.'.'.'.T.P.T.T.R.).l.i.5.<.;.$.&.5.j.i.<.b.M.G.^.9.5.G.j.R.).'.'.'.'._.T.R.R.R.R.R.",
"M.l.;.;.<.<.5.<.<.&.;.j.l.j.G.] &.R.f.G.^.'.'.'.'.'.P.P.T.P.^.R.j.t.;.;.<.<.;.<.<.5.9.M.C.M.R.$.5.R.b.T.).'.'.'.'.'.P.R.R.^.R.^.",
"M.j.;.<.E ;.;.<.&.;.b.l.l.l.9.I &.T.b.M.P._.'.'.'._.T.P.l.P.R.T.l.j.;.&.^ ;.;.<.&.9.C.M.P.M.f...t.^.b.C.^._.'.'.'.'.G.T.b.P.T.T.",
"b.l.5.;...$.&.;.;.<.f.f.j.;.X.b &.).P.P.P.R._.'.'.R.T.T.b.C.^.M.l.l.5.<...<.<.<.<.5.l.j.f.9.;.E i._.R.R.R.R._.'.'.R.T.T.C.P.^.b.",
"M.b.l.5.;.&.;.;.<.;...&.;.$.P r $.'._.T.P.T.T.T.T.R.M.G.T.T.M.b.l.M.l.5.&.&.&.<.;.5.$.;.<.<.^ V 5.'.'.T.R.R.).R.^.R.M.P.).T.b.j.",
"= = = % + + , 7 0 3 - , 0 0 3 ; 7 V b b z b g a r i r g b g g g g z z P D D P D D P V D P E V b P ` ` E ^ ^ ^ E ^ b g b b b z g ",
". , 3 7 , = 3 7 0 0 g g a V b b b z V b b V z a g a g b V b b 0 0 z V I E E E I E ] ` ^ E ^ ^ ^ E E E ^ E ^ ^ ^ I g i a g S z 0 ",
"E T.R.R.R.T.l.f.f.T._.R.R._._.).'.)._.).).).^.R.R.T.^.^.^.^.R.] ] G.P.G.P.T.R.).R.'.'.).^.C.b.C.M.C.P.^.R.P.C.b.b.j.f.j.M.^.^...",
"..'.'.'.T.R.l.l.b.R.'.'.'.'.'.'.'.'.'.'.'.'.'.'.'._.T.P.G.T.T.$.^ f.b.l.b.R.).).R.'.'.R.^.G.b.i.5.t.j.T.).C.l.b.C.b.M.b.M.R.).X.",
"..'.'.).T.R.M.l.f.T.'.'.'.'.'.'.'.'.'.'.'.'.'.'._.P.G.T.P.T.R.&.^ j.l.b.l.P.R.^._.R.R.^.T.l.l.;.&.&.5.C.).T.M.C.C.b.M.M.P._.^.` ",
"..'.'.^.G.C.R.C.f.P.'.'.'.'.T.).'.'.P._.'.'.'._.T.P.P.P.T.T.T.$.^ b.b.M.b.G.^.).R.^.P.G.l.l.5.9.5...&.j.C.).).M.C.M.b.).).P.b.] ",
"..'.'.T.l.f.C.M.f.T.'.'.R.G.P.P._.'.P._.'.'._.P.P.P.T.P.T.R.T.$.E b.j.M.M.P.R.T.^.b.b.l.l.t.&.5.&.I ..5.C.P.^.M.M.M.C.R.R.b.b.^ ",
"` R.P.G.f.f.l.i.f.^.'._.G.P.G.P.P.R.'._.'.'.G.G.b.P.P.R.'.R.R.$.E l.j.M.l.l.l.M.l.C.b.l.b.<.` ^ E E I 5.f.M.b.l.b.C.b._._.b.M.^ ",
"` R.R.b.5.$.t.b.j.R.R.P.l.M.P.P.T._.'.'.'.'.G.P.C.T.T.'.'.^.R.X.^ l.l.b.b.b.M.b.j.b.b.M.i.<.E I I E I &.<.t.C.l.C.M.b.T.T.M.b.E ",
"` ^.M.9.&.&.$.i.l.P.T.P.i.M.T.T.'.'.'.'.'.'.'.T.P.P._.'.'.R.R.X.` l.b.j.l.t.5.;.;.;.<.i.5...P E E E ^ ^ $.5.<.5.f.M.G.M.b.l.t.] ",
"` R.l.9...` &.<.f.l.P.^.C.G.T._.'.'.'.'.'.'.'.T.P.^.'.'.'.^.T.$.] l.b.l.j.t.5.<.5.<.;.9.5.X.` ^ E ^ ^ E E 5.5.;.5.C.M.M.M.b.j.] ",
"] ^.b.9.] ^ &.&.<.j.R.R.R.P._.'.'.'.'.'.'.'.T.T.P.).'.'.'.R.T.X.X.j.l.M.M.9.<.5.<.&.` E E t.;...I ^ E I ^ ;.5.5.5.C.G.C.M.G.M.X.",
"] ^.M.i.$.X.&.&.;.l.R.R.T.P.'.'.'.'.'.'.'.^.G.G.G.^.'.'.'.).P.;.$.j.b.l.b.l.<.<.;.$.I E &.9.<.5.` E ^ ^ <.<.<.<.i.C.G.b.M.C.C.] ",
"` R.R.b.<.;.f.<.$.C.^.).R.R.P.G.P.P.T.).'.R.G.P.P.).'.'.'.R.T.&.<.R.^.M.l.M.M.9.5.5.<.9.9.5.b.b.i.&.E X.t.t.l.5.5.b.M.M.C.G.M...",
"` R.).G.f.5.b.j.i.M.'.'.R.P.P.P.G.C.P.R.'.T.P.P.T.^.'.'.'.T.R.<.<.^.).G.b.b.C.i.5.5.9.5.<.i.P.M.f.9.^ <.t.M.G.<.5.M.l.b.C.l.l.` ",
"^ ^.).G.t.f.b.l.f.^.'.'.'.T.P.T.P.T.T.T.P.G.P.P.G.^.'.'.T.P.T.;.&.^.^.C.b.b.l.t.&.$.E ` ;.5.t.i.;.$.^ 5.5.G.C.5.<.C.b.b.b.l.5.D ",
"I ^.^.b.t.i.l.b.l._.'.'.).'.T.T.T.T.T.T.R.T.^.P.T.'.'.^.P.R.R.X.$.R.R.C.b.b.b.9.<.$.E E I <.<.5.;.&.$.<.9.C.M.f.9.b.l.j.j.5.<.b ",
"  X % X + + + + % % + = 7 0 7 7 i i i r i a i i i a a a i V S z b D D S D D D z V V V b V D D D P S S S P D S i i i i r 0 0 0 , ",
"P.l.l.G.P.G.C.R.R.R.R.M.t.f.P.D I M.t.5.t.5.5.t.f.P.R.^.R.^.^.P.G.b.f.G.P.T.R.^.^.).R.G.j.C.T.X.X.P.j.j.l.l.j.l.l.T.R.P.^.R.R.G.",
"T.C.^.T.R.).'._.T.T.P.P.j.C.R...&.T.M.j.P.P.T.P.P.^.'.'.'.'.'.R.P.C.R._.R.).'.'.P.R.R.T.b.R.^.<.5.^.P.M.^.P.T.^.R._.'.'.'.'.'.R.",
"T.P.^.^.^.^._.T.T.G.R.b.j.C.T...&.P.C.j.P.P.T.R.T.).'.'.'.'.'.P.C.G.^.R.R.)._.T.P.T.R.G.M.R._.5.5.R.P.b.R.^.R.R.^.).'.'.'.'.'.P.",
"^.P.M.T.R.T.R.C.j.l.l.j.j.G.^.X.$.R.j.C.R.T.^.T.T.).'.'.R.P.P.T.R.C.b.T.^.R.R.G.l.b.M.b.l.^.).9.<.R.l.P.R.).R.R.T.^.'.'.^.P.T.P.",
").P.f.G.R.T.P.l.i.t.l.l.j.C.R.] X.M.f.G.R.T.T.G.T.^.'.'.G.G.R.R.^.G.j.G.^.R.T.l.i.9.M.M.b.P.R.<.5.G.b.G.R.R.T.T.T.).'.'.G.P.P.P.",
"C.P.R.T.M.b.f.b.b.i.5.b.b.j.l.I ` j.f.C.R.T.).).'.'.'.'.P.T.T.R.C.G.T.).M.b.j.b.l.i.9.M.b.b.b.$.$.l.b.G.R.R.).)._.'.'.'.G.T.T.T.",
"b.T.).G.b.i.<.l.b.b.9.M.l.b.l.E ^ j.j.C.R.^.'.'.'.'.'.'.T.T.T.T.M.P.R.b.j.f.5.b.b.b.5.b.M.C.b.&.$.b.j.M.R.'.'.'.'.'.'.'.T.P.T.P.",
"R.'.C.l.b.t.<.C.P.C.b.l.M.l.P.^ ` f.j.G.R.).'.'.'.'._.^._.^.R.R.^.P.M.j.l.9.5.b.P.M.M.M.M.G.R.&.X.l.f.C.T.).'.'.'.'._.)._.R.R.R.",
"R.M.l.M.C.t.<.M.G.C.M.j.b.G.).X.E j.l.G.T.^.'.'.'.'.T.P._.^.R.R.R.M.b.l.b.t.<.b.G.C.C.G.M.G.).5.$.j.j.P.T.).'.'.'.).R.P._.^.R.T.",
"G.l.t.t.9.<.<.i.b.l.t.M.M.G.).$...G.l.G.^.'.'.)._.'.G.P.T.T.R.^.b.l.t.5.i.;.;.t.b.b.t.M.b.G.).5.5.G.l.R.^.'.'._._._.C.T.T.G.T.T.",
"C.l.<.<.<.;.5.<.<.<.<.C.M.G.R.] $.^.j.P.^.'.'.'.'.'.G.T.P.^.^.^.b.t.&.&.;.;.;.;.5.5.<.G.M.C.T.$.5.).j.T.^.'.'.'.'.'.P.G.R.T.P.T.",
"C.j.9.5.] 9.;.<.;.5.b.M.M.l.j.` ;.^.l.b.^.'.'.'.'.'.P.T.b.T.T.R.l.i.;.<.] <.<.<.5.<.b.C.M.M.l.$.9.).b.M.R.'.'.'.'.'.G.P.b.T.R.T.",
"M.C.9.5...5.5.<.<.t.b.M.l.t.<.S &.).P.G.R.T.'.'.'.^.P.T.j.G.R.C.l.j.<.X.] 5.&.5.5.9.M.C.M.i.<.I f.).T.R.T.^.'.'.'.^.P.T.j.C.R.C.",
"b.b.b.t.t.f.5.9.9.<.9.<.5.;.` g ;.'._.R.).T.R.^.R.P.M.C.R.R.C.f.l.b.j.&.;.9.5.5.5.;.5.<.9.;.X.S i.'._.R.^.T.T.).^.P.C.G.R.R.C.f.",
"D P D S S D D V z z 0 a a z i 3 a &.<.;.&.$.` ` ` ` I ] ..] I I ^ ^ ^ P S S I D D S b D E ^ V V I 5.;.<.$.] ] ] ] ` P ^ ..` E I "
};
