/* XPM */
static char *brks7[] = {
/* columns rows colors chars-per-pixel */
"64 64 111 2 ",
"   c #727272",
".  c gray45",
"X  c gray51",
"o  c #888888",
"O  c #898989",
"+  c #8B8B8B",
"@  c #8D8D8D",
"#  c gray56",
"$  c #909090",
"%  c gray57",
"&  c #929292",
"*  c #939393",
"=  c gray58",
"-  c #959595",
";  c gray59",
":  c #979797",
">  c #989898",
",  c gray60",
"<  c #9A9A9A",
"1  c #9B9B9B",
"2  c gray61",
"3  c #9D9D9D",
"4  c gray62",
"5  c #9F9F9F",
"6  c #A0A0A0",
"7  c gray63",
"8  c #A2A2A2",
"9  c gray64",
"0  c #A4A4A4",
"q  c #A5A5A5",
"w  c gray65",
"e  c #A7A7A7",
"r  c gray66",
"t  c #A9A9A9",
"y  c #AAAAAA",
"u  c gray67",
"i  c #ACACAC",
"p  c gray68",
"a  c #AEAEAE",
"s  c #AFAFAF",
"d  c gray69",
"f  c #B1B1B1",
"g  c #B2B2B2",
"h  c gray70",
"j  c #B4B4B4",
"k  c gray71",
"l  c #B6B6B6",
"z  c #B7B7B7",
"x  c gray72",
"c  c #B9B9B9",
"v  c gray73",
"b  c #BBBBBB",
"n  c #BCBCBC",
"m  c gray74",
"M  c gray",
"N  c gray75",
"B  c #C0C0C0",
"V  c #C1C1C1",
"C  c gray76",
"Z  c #C3C3C3",
"A  c gray77",
"S  c #C5C5C5",
"D  c #C6C6C6",
"F  c gray78",
"G  c #C8C8C8",
"H  c gray79",
"J  c #CACACA",
"K  c #CBCBCB",
"L  c gray80",
"P  c #CDCDCD",
"I  c #CECECE",
"U  c gray81",
"Y  c #D0D0D0",
"T  c gray82",
"R  c #D2D2D2",
"E  c LightGray",
"W  c gray83",
"Q  c #D5D5D5",
"!  c gray84",
"~  c #D7D7D7",
"^  c #D8D8D8",
"/  c gray85",
"(  c #DADADA",
")  c gray86",
"_  c gainsboro",
"`  c #DDDDDD",
"'  c gray87",
"]  c #DFDFDF",
"[  c gray88",
"{  c #E1E1E1",
"}  c #E2E2E2",
"|  c gray89",
" . c #E4E4E4",
".. c gray90",
"X. c #E6E6E6",
"o. c #E7E7E7",
"O. c gray91",
"+. c #E9E9E9",
"@. c #EAEAEA",
"#. c gray92",
"$. c #ECECEC",
"%. c gray93",
"&. c #EEEEEE",
"*. c #EFEFEF",
"=. c #F1F1F1",
"-. c #F3F3F3",
";. c gray96",
":. c gray97",
">. c #F9F9F9",
",. c #FBFBFB",
"<. c white",
/* pixels */
"k ( I u g I Q Q ( ( Q ] ( Q Q V g J R R R Q J J J Q Q I F J ( m k ( I u g I Q Q ( ( ( ( ( Q Q V g F R I Q Q J J J Q Q I J I Q m ",
"] <.&.I ] <.<.<.<.<.<.<.,.X.&.Q m R X.=.=.;.| J m Q ;.X.| ] &.I ] <.&.I ] <.<.<.<.<.<.<.,.O.O.Q V R O.=.;.=.| J m Q ;.X.] ] &.I ",
"] ;.Q | Q <.;.O.,.;.<.,.X.O.&.Q m ( ( ;.&.] I k u c X.X.] &.=.V ] ;.Q | Q <.;.O.<.;.<.;.X.O.&.Q m Q ( =.&.] I k u c X.X.] =.=.V ",
"I | c J ( &.] X.&.<.<.X.| =.,.I m R Q Q ( ( V ; ; 8 J ] | X.O.c I | c J ( &.] X.&.<.<.X.] =.,.R m R ( Q Q ( F ; ; 8 J ] | X.O.c ",
"Q J w g R &.( &.<.<.<.;.X.<.;.I c Q R k k k u ; ; $ s c J ] ( m Q J w g R &.( &.<.<.<.;.X.<.;.I c ( I k k g u $ ; $ u c J ( ( m ",
"I I 8 g V &.&.<.<.<.,.X.O.<.;.R c Q I k k $ s c , ; g c J ] ( F R I 8 g V &.O.<.<.<.,.X.&.<.;.R c Q R k c $ s c , ; g c J | ( F ",
"Q X.m I J ;.O.O.O.O.;.X.&.<.;.R Q X.R I c k V ( m w F F J ( ] V R X.m I I ;.O.O.O.O.;.X.&.<.=.R Q X.R I c k V ( V w J F J ( ( V ",
"R O.F J | <.;.O.X.X.O.X.&.,.| J J | I F g @ w k g u J I I Q V 4 R O.F J ] <.,.O.X.X.X.X.&.,.| J J | I F g @ w c s u J I I Q F 4 ",
"4 , 8 w u 4 ; $ 4 8 8 ; 8 g g u 4 8 w k m m g w w s s u u g s s 4 4 8 w u 4 $ $ 4 8 8 ; 8 g g u 8 8 w g V m g w w s s u u g g s ",
"O.=.&.,.X.| Q R ( Q &.O.&.<.<.;.| &.=.,.O.&.] Q ( ( =.&.;.<.<.,.O.&.&.,.X.| Q Q ( Q &.X.&.<.<.;.| =.=.<.O.O.] Q ( ( =.&.;.<.<.;.",
"O.] &.| J R ( I I Q O.X.&.<.O.O.O.| &.O.I ( ] ] ( ( =.&.=.<.O.O.O.] =.| J R Q R R Q O.X.&.<.&.O.X.] &.O.I ( ] ] ( ( &.&.=.<.O.O.",
"X.O.R J I F R c c R =.<.<.<.O.=.] O.I J Q F Q V V ( =.<.<.<.O.=.| O.I J R F R c c R &.<.<.<.O.&.] O.I J R F ( V V ( =.<.<.<.O.&.",
"O.Q I V ( R Q I m R &.<.<.=.,.&.O.Q I F ] ( ] Q V Q ;.<.<.=.,.&.O.Q I F Q R Q R m R =.<.<.=.;.=.O.Q I F ] ( ] Q V Q =.<.<.=.<.&.",
"Q c k c V V Q R I ( ,.<.<.X.&.&.J k g k V F ] ( R | ,.<.<.=.&.&.Q c c k F m Q I I ] ;.<.<.X.&.&.I k g g F J ( Q R | <.<.<.&.&.&.",
"R k 8 g g R J w Q | =.<.,.X.( O.R g u g k ( R k | X.=.<.,.O.| O.R g 8 g s R I w Q | =.<.,.X.( O.I g u g k Q R k | | ;.<.<.O.] O.",
"k w , , , $ ,   m R J J J m J c k g 4 w w 8 w O F ( R Q I V I c k u ; , , $ ,   m R J J J m J c k g 4 w w 8 u O F ( R Q I V I c ",
"  ; O X O , 4 8 8 w 8 , ; 4 8 @ @ w s g k c s u u g s u , O 4 @   ; O X O , 4 8 w 8 8 , ; 8 8 @ @ w s g k c g u u g s u , O 4 @ ",
"( <.&.R ] <.<.<.<.<.<.<.,.O.O.R k Q | =.=.,.X.J m ( X.Q ( ( O.R ( <.&.R ] <.<.<.<.<.<.<.,.O.O.R k Q | =.;.;.X.J m ( X.Q ( ( O.R ",
"( ;.] | ( <.,.;.<.&.<.,.O.O.O.Q c Q | =.&.] R c u m O.X.( | X.m ( ;.( | ( <.,.;.<.&.<.;.O.O.O.Q c Q ] =.=.] R c u m &.X.( | X.m ",
"R X.V I ( ,.] X.O.<.<.| | &.;.R c R Q ( ( ( V ; $ 8 I ( ( O.X.c R X.F J ] ,.] X.O.<.<.| | &.;.R c R Q ( Q ( V ; @ 8 I Q ( X.X.m ",
"R I u k ( O.( O.<.<.<.;.X.,.;.R c R I c k m g $ ; ; s k I ( ( k R I w c ( O.Q O.<.<.<.;.O.,.;.I m R I c k m g $ $ , s k R ( Q c ",
"R I , s V &.O.,.<.<.,.O.&.<.,.I m R I k g ; u s $ $ u g I ] ] V R J , s V &.O.<.<.<.<.O.&.<.,.I m R I k g ; u u $ $ w k I ] ] V ",
"R | c m J ;.&.X.O.=.,.X.&.<.;.I Q | Q I c c c R c 8 F F F ( ( V R X.c V J ;.&.O.O.&.;.X.&.<.,.I Q | Q J c m m Q m 8 F F F ( ( V ",
"Q O.F R | <.;.O.O.&.O.O.&.,.&.R Q O.R I s , s F s u J I F R R w Q O.F R | <.;.O.O.&.&.O.&.,.O.R Q O.Q I s , s V g u J I F R I w ",
", 8 8 w k g u 4 8 8 w 8 k m m k s s c k g u w 8 w w g w s s u , , 8 8 u g k u 4 8 w 8 8 k m m k u g c k g u w w w w g u u g u , ",
"X.&.=.,.O.O.Q R R R | X.O.<.<.;.| &.=.,.&.O.| Q ( | X.&.;.<.<.;.X.&.=.,.O.O.Q R R R | X.O.<.<.;.| &.=.<.&.O.| Q Q | X.O.;.<.<.;.",
"O.| &.X.I Q ( R R Q O.&.&.<.&.&.X.] =.O.R ] ] ] Q ( &.&.=.<.=.O.O.| &.X.I Q Q R R Q O.&.=.<.&.O.X.] =.X.R ] | ] Q ( &.&.=.<.&.O.",
"| &.( I I J R c m Q &.;.<.<.O.=.| O.( R J J ( F F ( &.;.,.<.O.O.| &.Q I I J Q c m Q &.;.<.<.O.=.| O.( I J J ( V F ( &.,.,.<.O.O.",
"&.] I J | R Q F k ( ;.<.<.;.;.O.O.( I F | Q ] J m Q =.<.<.;.=.&.&.( J J | Q ( F g ( =.<.<.;.;.O.O.( J F | Q ] I m Q =.<.<.,.=.&.",
"( F c m J I ] ( F ( ;.<.<.O.O.&.R m m c I I ] ] I ] ;.<.<.O.&.O.( F m m J I ] Q J ( ;.<.<.X.&.=.Q m c c R I ] ( R ] ;.<.,.X.O.X.",
"Q c s k c Q Q k Q ( ,.<.<.&.| &.I g u g m ( ( m ] ] ;.<.,.| ] O.( k s k c Q Q k Q ( ;.<.<.O.| O.I g s g c ( ( m ( | ;.<.,.X.| O.",
"Q J m c k c k O ( =.O.=.O.( | R I c g c k c c $ | =.O.=.&.] X.R ( J m c k c g O ( ;.&.&.O.] | Q I c g c k c m $ | =.O.=.&.] X.Q ",
"k ( I u g I Q Q ( ( ( ( ] Q Q V g F R R Q Q J J J Q Q I J J ( m k ( I u g I Q Q ( ( ( ( ( Q Q V g F R I Q Q J J J Q Q I J I Q m ",
"] <.&.I ] <.<.<.<.<.<.<.;.O.&.Q m R X.=.=.=.| I m Q ;.| | ] &.I ] <.&.I ] <.<.<.<.<.<.<.,.O.O.Q V R O.=.;.=.| J m Q ;.X.] ] &.I ",
"] =.Q | ( <.=.O.,.;.<.;.X.O.&.R m ( ( =.&.] I k u m | X.( =.=.V ] ;.Q | Q <.;.O.<.;.<.;.X.O.&.Q m Q ( =.&.] I k u c X.X.] =.=.V ",
"R | c J ( &.] O.&.<.<.X.| =.,.R m R ( Q Q ( F $ ; 8 J ] | X.O.c I | c J ( &.] X.&.<.<.X.] =.,.R m R ( Q Q ( F ; ; 8 J ] | X.O.c ",
"Q J w g R &.] &.<.<.<.;.O.<.;.J c ( I k k g s ; ; $ u c J ] ( m Q J w g R &.( &.<.<.<.;.X.<.;.I c ( I k k g u $ ; $ u c J ( ( m ",
"I I 8 g V O.O.<.<.<.,.X.O.<.,.R c Q R k k ; s k , ; g m J | Q F R I 8 g V &.O.<.<.<.,.X.&.<.;.R c Q R k c $ s c , ; g c J | ( F ",
"Q X.m I J ,.O.O.O.X.;.X.&.<.=.R R X.R I k k V ( m w F F J ( ( V R X.m I I ;.O.O.O.O.;.X.&.<.=.R Q X.R I c k V ( V w J F J ( ( V ",
"R O.F J ] <.,.X.O.X.O.X.&.,.X.J J | I F g $ w k g w I I I Q F 4 R O.F J ] <.,.O.X.X.X.X.&.,.| J J | I F g @ w c s u J I I Q F 4 ",
"4 , 8 w u 4 $ $ 4 8 8 ; 8 g g u 8 4 w k m m g u w s s u u s g s 4 4 8 w u 4 $ $ 4 8 8 ; 8 g g u 8 8 w g V m g w w s s u u g g s ",
"O.&.&.,.X.X.Q R ( Q &.X.&.<.<.;.| =.=.<.&.O.] Q ] ( =.&.;.<.<.;.O.&.&.,.X.| Q Q ( Q &.X.&.<.<.;.| =.=.<.O.O.] Q ( ( =.&.;.<.<.;.",
"O.] &.| J I ( R R Q O.X.&.<.O.O.X.] &.O.J ( ] ] ( ( &.&.;.<.O.O.O.] =.| J R Q R R Q O.X.&.<.&.O.X.] &.O.I ( ] ] ( ( &.&.=.<.O.O.",
"X.O.R J R F R c c R =.<.<.<.&.&.] O.I J R J Q m V ( =.<.<.<.O.=.| O.I J R F R c c R &.<.<.<.O.&.] O.I J R F ( V V ( =.<.<.<.O.&.",
"O.Q I F Q R Q R m R =.<.<.=.,.&.O.Q I F | ( ] Q V ( =.<.<.=.,.=.O.Q I F Q R Q R m R =.<.<.=.;.=.O.Q I F ] ( ] Q V Q =.<.<.=.<.&.",
"Q c k k F m Q R I ( ;.<.<.O.O.&.I k g k V J ] Q I | ,.<.<.&.&.&.Q c c k F m Q I I ] ;.<.<.X.&.&.I k g g F J ( Q R | <.<.<.&.&.&.",
"R k 8 g s R J w Q | =.<.,.X.( O.I g u g k ( R k | | =.<.,.O.] O.R g 8 g s R I w Q | =.<.,.X.( O.I g u g k Q R k | | ;.<.<.O.] O.",
"k w , , , $ ,   m R J I J m J c k g 4 w w 8 w O J ( Q Q R V I c k u ; , , $ ,   m R J J J m J c k g 4 w w 8 u O F ( R Q I V I c ",
". $ @ X o , 4 8 8 8 8 ; ; 4 8 @ @ w s g k c g u u g s u , O 4 @   ; O X O , 4 8 w 8 8 , ; 8 8 @ @ w s g k c g u u g s u , O 4 @ ",
"] <.&.R ] <.<.<.<.<.<.<.,.O.O.R k Q | =.;.;.X.I m Q X.Q ( ( O.R ( <.&.R ] <.<.<.<.<.<.<.,.O.O.R k Q | =.;.;.X.J m ( X.Q ( ( O.R ",
"] ;.] | ( <.,.;.<.=.<.,.O.O.O.Q c Q | =.&.| I c u c &.X.( | X.m ( ;.( | ( <.,.;.<.&.<.;.O.O.O.Q c Q ] =.=.] R c u m &.X.( | X.m ",
"I X.V J ] ,.] X.O.<.<.| | &.;.R c R Q ( Q ( V ; @ 8 I ( ( X.X.m R X.F J ] ,.] X.O.<.<.| | &.;.R c R Q ( Q ( V ; @ 8 I Q ( X.X.m ",
"R I w k ( O.Q O.<.<.<.;.O.,.;.R c R I c k m k $ ; ; s k I ( Q k R I w c ( O.Q O.<.<.<.;.O.,.;.I m R I c k m g $ $ , s k R ( Q c ",
"R J 4 s F &.O.<.<.<.<.O.=.<.;.I m R I k g ; u u $ $ u k I | ] V R J , s V &.O.<.<.<.<.O.&.<.,.I m R I k g ; u u $ $ w k I ] ] V ",
"R X.c m J ;.O.O.O.&.;.X.O.<.,.I Q | Q I k m m R m 4 F F F Q ( V R X.c V J ;.&.O.O.&.;.X.&.<.,.I Q | Q J c m m Q m 8 F F F ( ( V ",
"Q O.F R | <.;.O.O.&.&.O.=.<.O.R Q O.R I s , g V g u J I F R R w Q O.F R | <.;.O.O.&.&.O.&.,.O.R Q O.Q I s , s V g u J I F R I w ",
", 8 8 w g g u 4 8 w w 8 k m c k u g c k g u w 8 w w g w u g u 4 , 8 8 u g k u 4 8 w 8 8 k m m k u g c k g u w w w w g u u g u , ",
"X.&.=.,.O.O.Q R R R X.X.O.<.<.;.| &.=.,.&.O.| Q ( | X.&.;.<.<.;.X.&.=.,.O.O.Q R R R | X.O.<.<.;.| &.=.<.&.O.| Q Q | X.O.;.<.<.;.",
"O.| &.X.R Q Q Q I Q O.O.&.<.&.&.X.] &.X.Q ] | ] Q ( &.&.=.<.&.O.O.| &.X.I Q Q R R Q O.&.=.<.&.O.X.] =.X.R ] | ] Q ( &.&.=.<.&.O.",
"| &.( I I J R c m Q &.,.<.<.O.&.] &.( R J J Q F V ( =.;.,.<.O.O.| &.Q I I J Q c m Q &.;.<.<.O.=.| O.( I J J ( V F ( &.,.,.<.O.O.",
"&.( I J | R ( F k Q =.<.<.,.=.O.O.( J F | ( ] I m Q =.<.<.;.=.&.&.( J J | Q ( F g ( =.<.<.;.;.O.O.( J F | Q ] I m Q =.<.<.,.=.&.",
"( F m c I I ] Q J ( ,.<.<.X.O.=.Q m m c I I ( ] R ] ;.<.,.X.&.X.( F m m J I ] Q J ( ;.<.<.X.&.=.Q m c c R I ] ( R ] ;.<.,.X.O.X.",
"( k s k c Q Q k Q ( ;.<.<.&.X.&.I s s k c ( ( m ( | ;.<.,.X.| O.( k s k c Q Q k Q ( ;.<.<.O.| O.I g s g c ( ( m ( | ;.<.,.X.| O.",
"Q J m c k c k O ( =.&.&.X.( | R I c g k k c m $ | ;.O.=.&.] X.R ( J m c k c g O ( ;.&.&.O.] | Q I c g c k c m $ | =.O.=.&.] X.Q "
};
