/* XPM */
static char *red[] = {
/* columns rows colors chars-per-pixel */
"64 64 116 2 ",
"   c #5D130F",
".  c #680E06",
"X  c #630C0C",
"o  c #770404",
"O  c #710905",
"+  c #710E06",
"@  c #770E06",
"#  c #740909",
"$  c #770909",
"%  c #760A0A",
"&  c #790E0E",
"*  c #6C1010",
"=  c #6E1111",
"-  c #701212",
";  c #741414",
":  c #751515",
">  c #761616",
",  c #771616",
"<  c #771717",
"1  c #791717",
"2  c #791818",
"3  c #7A1818",
"4  c #7B1919",
"5  c #7C1919",
"6  c #7D1A1A",
"7  c #7F1B1B",
"8  c #800404",
"9  c #830404",
"0  c #820505",
"q  c #820606",
"w  c #850404",
"e  c #860404",
"r  c #870606",
"t  c #890404",
"y  c #8B0404",
"u  c #8A0505",
"i  c #880707",
"p  c #8C0404",
"a  c #8D0404",
"s  c #8E0404",
"d  c #8F0404",
"f  c #8E0707",
"g  c #800C0C",
"h  c #850E0E",
"j  c #890808",
"k  c #8B0909",
"l  c #8C0808",
"z  c #8E0909",
"x  c #8C0A0A",
"c  c #8F0A0A",
"v  c #8E0B0B",
"b  c #8F0C0C",
"n  c #8D0E0E",
"m  c #900404",
"M  c #930404",
"N  c #910707",
"B  c #940606",
"V  c #940707",
"C  c #970707",
"Z  c #9B0404",
"A  c #9B0606",
"S  c #9A0707",
"D  c #9D0707",
"F  c #9E0606",
"G  c #930A0A",
"H  c #970B0B",
"J  c #910D0D",
"K  c #920C0C",
"L  c #900E0E",
"P  c #930E0E",
"I  c #950C0C",
"U  c #970D0D",
"Y  c #960E0E",
"T  c #980808",
"R  c #9B0808",
"E  c #9A0D0D",
"W  c #990E0E",
"Q  c #9D0D0D",
"!  c #9C0E0E",
"~  c #9F0E0E",
"^  c #811111",
"/  c #821010",
"(  c #831111",
")  c #821212",
"_  c #831212",
"`  c #841111",
"'  c #851212",
"]  c #841313",
"[  c #871313",
"{  c #861414",
"}  c #891212",
"|  c #891414",
" . c #A10000",
".. c #A40000",
"X. c #A70000",
"o. c #A10606",
"O. c #A00707",
"+. c #A30707",
"@. c #A60707",
"#. c #AA0000",
"$. c #AD0000",
"%. c #A90707",
"&. c #AC0707",
"*. c #AF0707",
"=. c #A20E0E",
"-. c #A50E0E",
";. c #B00000",
":. c #B30000",
">. c #B60000",
",. c #B90000",
"<. c #BC0000",
"1. c #BF0000",
"2. c #C20000",
"3. c #C50000",
"4. c #C80000",
"5. c #CB0000",
/* pixels */
"G -.Q x x =.=.-.-.-.-.-.-.=.@.S | ! =.=.=.=.! S P @.@.! ! P %.S H =.Q k x Q =.-.-.-.-.-.-.=.+.D | ! =.=.=.=.! D P @.+.! P P %.D ",
":.5.<.X.>.5.5.5.5.5.5.5.3.>.<.$.L X.>.2.2.2.:.D V $.2.$.$.:.<.Q :.5.<.X.>.5.5.5.5.5.5.5.3.>.<.$.P #.>.2.2.2.:.S V #.2.:.:.:.<.Q ",
"&.2.X.>.$.5.2.>.3.2.5.3.:.<.<.@.P #.$.2.<.$.D n ' n >.>.$.2.2.P &.2.X.>.$.5.2.>.5.2.5.3.:.>.<.+.L X.#.2.<.$.D n { L >.>.$.2.<.P ",
"Q :.L X.$.<.$.:.2.5.5.:.$.<.3.! L X.X.X.X.$.L 1 < 4 X.$.$.>.:.L Q >.L X.$.<.$.>.<.5.5.:.$.2.3.Q P X.X.X.#.$.L < : 5 X.#.$.>.>.L ",
"#.X.4 | #.<.#.<.5.5.5.2.>.5.2.! x #.X.7 5 { 5 : < : 5 n Q :.$.L #...5 | #.<.$.<.5.5.5.2.>.5.2.! L #.X.5 { { 5 4 : : 5 n D $.$.L ",
"! ..4 7 L <.<.5.5.5.3.:.<.5.2.! n X.X.7 n 4 5 V 4 < { n S $.X.! ! X.5 5 P <.<.5.5.5.3.>.<.5.3.! x X.#.5 | > 5 V 4 1 { n S :.X.! ",
"@.>.n ..O.3.>.>.>.>.2.:.<.5.2.Q +.>.X...{ { S #.L 6 T L P $.#.L +.>.n X.Q 3.>.>.>.>.2.:.<.5.2.Q +.>.X...{ { T #.L 5 S L L $.#.L ",
"@.>.#.X.>.5.3.:.>.:.:.>.<.5.:.D ! :.X.! { : 5 { { 6 Z X.D #.D 1 +.>.X.X.>.5.3.:.>.:.:.>.<.3.>.D Q >.X.Q 7 : 5 { { 5 ..X.D #.D 1 ",
"e 0 t t s t 0 % g r r 0 0 M M a r 9 t m Q S x h g k k t a V m m t r t t s t 0 % g r r 0 0 M M a e r s m Q V x h ( k k k t V M M ",
">.2.<.5.:.:.#.Q :.X.<.>.2.5.5.2.:.2.2.5.>.<.$.$.>.$.2.<.3.5.5.2.>.<.<.5.:.:.#.Q :.X.<.>.<.5.5.2.:.<.2.5.<.<.$.$.:.#.2.<.3.5.5.2.",
"<.$.<.>.X.X.#.! ..$.>.>.<.5.<.>.>.$.<.>...#.:.>.$.$.2.<.2.5.<.:.<.#.2.:...X.#.Q ..$.>.>.<.5.>.<.>.:.<.>...X.:.:.$.$.2.<.2.5.<.:.",
"$.<.X.S X.S #.L L X.<.5.5.5.<.<.$.<.X.D X.V X.L P #.2.5.5.5.>.2.$.<.X.D X.S #.L L X.<.5.5.5.<.2.#.<...D #.V #.L P #.2.5.5.5.>.<.",
"<.X...L #.#.#.Q L #.<.5.5.<.3.2.<.X.X.T $.#.$.%.P $.2.5.5.2.5.<.<.X.O.P #.#.#.Q P #.<.5.5.<.3.<.<.X.X.S $.X.$.%.P $.2.5.5.2.5.<.",
"X.| { { L L #.+.O.$.3.5.5.:.<.<.X.{ 7 { L S #.%.#.$.5.5.5.<.<.<.X.| { ] P L $.O.D $.3.5.5.>.<.<...{ 5 { L S #.%.#.$.5.5.5.<.<.<.",
"@.{ 5 5 { @.D ( $.$.<.5.3.:.#.<.#.5 4 5 { #.X.{ >.:.2.5.5.>.$.<.X.5 5 { { @.S ( $.$.2.5.3.>.#.<.X.7 4 7 { X.#.' >.:.2.5.3.>.:.<.",
"n ' : : : = : X H =.! =.Q H Q L n ' 4 4 4 4 4 = O.%.=.+.=.P =.x n ' : : > = : X T Q ! ~ ~ P Q L n ' 4 4 4 4 4 = O.%.Q @.=.! Q n ",
"  @ . . O t r t t t t 0 0 r t % % t s x V S k t t G s i 0 o 0 #   @ + . O e r t t t t 0 9 r t % % t k s G V x t k m s i 0 o 0 # ",
"-.5.<.X.:.5.5.5.5.5.5.5.3.>.>.O.n #.$.2.2.3.>.Q P $.<.X.#.X.<.=.-.5.<.#.:.5.5.5.5.5.5.5.3.>.>.+.L #.:.2.2.3.>.D P $.<.X.#.X.<.Q ",
"-.3.$.:.$.5.3.2.5.<.5.3.>.>.>.@.x X.$.2.2.$.X.n 5 L <.:.X.$.>.L -.3.$.$.$.5.3.2.5.<.5.3.>.>.>.+.n X.#.2.<.:.#.n 7 n <.:.#.$.>.n ",
"Q :.S X.>.5.$.:.<.5.5.:.$.<.2.! L #.X.#.X.#.P : : 1 Q #.X.>.>.L Q :.S X.:.5.$.:.<.5.5.:.$.<.2.! L X.X.#.X.#.L : : 4 Q #.X.<.>.L ",
"Q #.5 } #.<.#.>.5.5.5.2.>.5.3.Q L X.X.| 5 T n : 4 : 5 { X.#.#.L Q X.4 n #.<.#.>.5.5.5.2.:.3.3.! G X...| 7 V n : < < 5 | ..#.X.n ",
"=.Z 4 { S <.>.3.5.5.3.<.<.5.3.P L X...5 { : ] 5 : : 5 7 Q $.#.P =...< 7 S <.>.3.5.5.3.<.<.5.3.! L X...7 { : ] 5 : < 5 5 D :.#.P ",
"Q >.| L D 3.<.:.<.<.3.>.<.5.3.! #.>.X.Q { V L #.n 4 ..D P #.#.L Q >.| L D 3.<.:.<.<.3.>.<.5.3.! #.:.X.D { m L $.P 4 ..S L X.#.P ",
"=.<...X.:.5.2.>.>.<.<.>.<.3.<.+.@.<.X.#.5 < { T { ( S O.L X...( =.<...#.:.5.2.>.>.<.<.>.<.3.<.+.@.<.X.X.5 4 { T ] ] D O.L X.X.( ",
"& 4 : ( n { 5 1 1 5 5 5 { L P x ( { L L n t ( ' ( 5 { 5 ' L x 0 ; 5 1 ( L ] 4 4 1 5 5 4 { L L x ' { P L x k ( ( ( 4 { 7 { n x 0 ",
">.2.2.5.<.>.#.=.D #.>.>.<.5.5.3.:.<.2.5.<.<.$.$.$.$.>.<.2.5.5.3.>.2.2.3.<.<.#.Q O.#.>.>.<.5.5.2.:.<.2.3.<.<.$.$.:.#.>.<.2.5.5.2.",
">.:.<.>.X.#.$.Q Q #.<.>.<.5.<.<.>.:.<.>.X.#.>.>.$.$.2.<.<.5.<.>.<.:.<.>.X.#.$.Q O.#.>.<.<.5.<.<.>.:.<.<.X.#.:.>.#.$.<.<.2.5.<.>.",
":.<.#...X.D X.H H $.<.3.5.5.>.<.:.<.$.X.D D X.P P $.<.3.3.5.>.>.:.<.#...X.D #.L L $.<.3.5.5.>.2.$.<.$.X.D Q #.P P $.2.3.3.5.>.>.",
"<.$.O.P :.X.#.P x #.3.5.5.3.2.>.<.#.@.L :.#.$.D P #.2.5.5.3.2.<.<.$.O.P $.X.#.P n #.2.5.5.2.2.<.<.#.X.L $.#.$.Q P #.2.5.5.3.2.<.",
"$.L | { S Q $.=.! $.3.5.5.:.<.<.#.L | { X.Q $.>.+.:.3.5.3.:.<.:.#.P | | S D $.-.! $.3.5.5.:.<.<.#.P | | ..+.$.>.@.$.3.5.5.:.<.:.",
"#.{ 4 { ' $.X.L #.X.3.5.5.<.:.<.X.5 5 7 | $.#.L :.$.2.5.5.>.:.<.#.{ 5 { { #.#.L $.X.3.5.5.<.:.<.O.7 5 { { %.#.n :.$.<.5.3.>.:.<.",
"X.X.n { 5 L | = &.2.<.<.>.$.:.#.X.{ { { 5 P n : *.2.<.<.<.$.:.#.X.X.} ] { n | * &.3.<.<.>.#.:.#.#.{ 7 { { P n < ;.2.<.2.<.$.:.X.",
"G -.Q x x Q =.-.-.-.-.-.=.=.@.S | ! =.=.=.=.! D P @.@.! ! P %.D G -.Q k n Q =.-.-.-.-.-.-.=.+.D | ! =.=.=.=.! D P @.+.! P P %.D ",
":.5.<.X.>.5.5.5.5.5.5.5.3.>.<.$.L X.>.2.2.2.:.D V #.2.$.:.:.<.Q :.5.<.X.>.5.5.5.5.5.5.5.3.>.<.$.P #.>.2.2.2.:.S V #.2.:.:.:.<.Q ",
"&.2.X.>.$.5.2.>.3.2.5.3.:.>.<.@.L #.$.2.<.$.Q x ' n >.>.#.<.<.P %.2.X.>.$.5.2.>.5.2.5.3.:.>.<.+.L X.#.2.<.$.D n { L >.>.$.2.<.P ",
"Q :.L ..:.<.$.:.2.5.5.:.:.<.3.! L X.X.X.X.$.L < < 5 X.$.$.<.:.L =.:.L X.$.<.$.>.<.5.5.:.$.2.3.Q P X.X.X.#.$.L < : 5 X.#.$.>.>.L ",
"$...4 | #.<.$.<.5.5.5.2.:.5.3.! G X.X.5 7 { 5 : < : 7 n D $.$.n #...4 | #.<.$.<.5.5.5.2.>.5.2.! L #.X.5 { { 5 4 : : 5 n D $.$.L ",
"Q ..4 7 P <.<.5.5.5.3.:.<.5.3.! n #.@.{ | > 5 H 4 : { n S :.#.! ! ..4 7 P <.<.5.5.5.3.>.<.5.3.! x X.#.5 | > 5 V 4 1 { n S :.X.! ",
"+.>.n X.D 3.>.>.>.>.2.>.<.5.2.Q @.>.X...{ { T #.L 4 D L P $.#.P @.>.n X.D 3.>.>.>.>.2.:.<.5.2.Q +.>.X...{ { T #.L 5 S L L $.#.L ",
"+.>.X.X.:.5.3.:.>.:.:.>.<.5.:.D ! :.X.T { : 5 { 7 4 ..X.D #.D 1 @.>.X.X.>.5.3.:.>.:.:.>.<.3.>.D Q >.X.Q 7 : 5 { { 5 ..X.D #.D 1 ",
"t r t s s t 0 % & t t 0 0 V m s r e t m Q V x h h k t k s m m m r 9 t a s t 0 % g r r 0 0 M M a e r s m Q V x h ( k k k t V M M ",
">.<.<.5.:.:.#.Q :.X.<.>.<.5.5.2.:.<.2.5.<.<.$.$.:.$.2.<.3.5.5.3.>.<.2.3.:.:.#.Q :.X.<.>.<.5.5.2.:.<.2.5.<.<.$.$.:.#.2.<.3.5.5.2.",
"<.$.<.:.X.X.#.Q X.$.>.>.<.5.<.<.>.:.<.>...X.:.:.:.$.<.<.2.5.<.:.<.#.<.>...X.#.Q ..$.>.>.<.5.>.<.>.:.<.>...X.:.:.$.$.2.<.2.5.<.:.",
"$.<.X.D X.S X.L L X.<.5.5.5.<.<.$.<.X.S X.S #.L L #.2.5.5.5.>.<.$.<.X.D X.S #.L L X.<.5.5.5.<.2.#.<...D #.V #.L P #.2.5.5.5.>.<.",
"<.X.X.L #.#.#.Q L #.<.5.5.<.3.<.<.#.#.T $.X.$.%.L $.3.5.5.2.5.<.<.X.O.P #.#.#.Q P #.<.5.5.<.3.<.<.X.X.S $.X.$.%.P $.2.5.5.2.5.<.",
"X.| { { L L #.@.D $.3.5.5.:.<.<...{ 5 | L S #.%.X.$.5.5.5.<.<.<.X.| { ] P L $.O.D $.3.5.5.>.<.<...{ 5 { L S #.%.#.$.5.5.5.<.<.<.",
"X.7 4 7 7 X.D ' $.$.<.5.5.:.#.<.X.7 4 5 { X.X.' <.:.2.5.5.>.:.<.X.5 5 { { @.S ( $.$.2.5.3.>.#.<.X.7 4 7 { X.#.' >.:.2.5.3.>.:.<.",
"n ' : : : = : X ! Q Q =.Q P Q G n ] 4 4 4 4 4 - O.%.Q @.=.P Q n n ' : : > = : X T Q ! ~ ~ P Q L n ' 4 4 4 4 4 = O.%.Q @.=.! Q n ",
"  @ + . O r e t t t t 0 9 e t # % s k s G V s k r G s k 0 o 0 #   @ + . O e r t t t t 0 9 r t % % t k s G V x t k m s i 0 o 0 # ",
"-.5.<.#.:.5.5.5.5.5.5.5.3.>.>.O.x X.:.2.2.3.>.Q L $.>.X.#.#.<.Q -.5.<.#.:.5.5.5.5.5.5.5.3.>.>.+.L #.:.2.2.3.>.D P $.<.X.#.X.<.Q ",
"-.3.$.$.$.5.3.2.5.<.5.3.>.>.>.@.n #.$.2.<.:.X.n 5 n <.:.X.$.>.L -.3.$.$.$.5.3.2.5.<.5.3.>.>.>.+.n X.#.2.<.:.#.n 7 n <.:.#.$.>.n ",
"Q :.S #.:.5.$.>.<.5.5.:.$.<.2.Q n X.#.#.#.X.L : : 4 D #.X.<.>.L Q :.S X.:.5.$.:.<.5.5.:.$.<.2.! L X.X.#.X.#.L : : 4 Q #.X.<.>.L ",
"Q #.4 } $.<.#.>.5.5.5.<.>.5.3.! L #...| 5 H n 1 1 : 5 { X.#.X.L Q X.4 n #.<.#.>.5.5.5.2.:.3.3.! G X...| 7 V n : < < 5 | ..#.X.n ",
"Q ..< 7 S <.>.3.5.5.5.<.<.5.2.! L X...5 { : ( 5 : 4 4 7 +.$.$.L =...< 7 S <.>.3.5.5.3.<.<.5.3.! L X...7 { : ] 5 : < 5 5 D :.#.P ",
"Q >.| P D 3.<.:.<.<.3.>.<.5.3.! #.:.X.D { V n #.n 4 ..D L X.#.L Q >.| L D 3.<.:.<.<.3.>.<.5.3.! #.:.X.D { m L $.P 4 ..S L X.#.P ",
"=.<.X.X.:.5.2.>.>.<.<.:.<.3.<.O.@.<.X.X.5 1 ( S { ( S D P #...( =.<...#.:.5.2.>.>.<.<.>.<.3.<.+.@.<.X.X.5 4 { T ] ] D O.L X.X.( ",
"& 4 < ( n { 4 4 1 5 4 4 { L L x ( { L n n x ( ( ( 4 | 5 ' n n 0 ; 5 1 ( L ] 4 4 1 5 5 4 { L L x ' { P L x k ( ( ( 4 { 7 { n x 0 ",
">.<.2.5.<.<.#.=.Q #.:.>.<.5.5.3.:.<.2.5.<.<.:.$.:.$.>.<.2.5.5.2.>.2.2.3.<.<.#.Q O.#.>.>.<.5.5.2.:.<.2.3.<.<.$.$.:.#.>.<.2.5.5.2.",
"<.:.<.>.X.#.$.Q O.#.<.<.<.5.<.<.>.:.<.>.X.#.:.>.#.$.<.<.2.5.<.>.<.:.<.>.X.#.$.Q O.#.>.<.<.5.<.<.>.:.<.<.X.#.:.>.#.$.<.<.2.5.<.>.",
":.>.#...X.S X.H P $.<.3.5.5.>.<.:.<.:.X.D D X.L L $.2.3.3.5.>.>.:.<.#...X.D #.L L $.<.3.5.5.>.2.$.<.$.X.D Q #.P P $.2.3.3.5.>.>.",
"<.$.X.L $.X.#.P n #.2.5.5.3.2.<.<.#.X.L :.#.$.O.P #.<.5.5.3.2.<.<.$.O.P $.X.#.P n #.2.5.5.2.2.<.<.#.X.L $.#.$.Q P #.2.5.5.3.2.<.",
"#.L | | S D $.=.! $.3.5.5.:.<.<.$.L { | ..O.$.:.@.:.3.5.3.:.<.:.#.P | | S D $.-.! $.3.5.5.:.<.<.#.P | | ..+.$.>.@.$.3.5.5.:.<.:.",
"#.{ 5 { ] %.X.L $.X.3.5.5.<.:.<.X.5 6 7 { $.#.L :.:.2.5.5.:.:.<.#.{ 5 { { #.#.L $.X.3.5.5.<.:.<.O.7 5 { { %.#.n :.$.<.5.3.>.:.<.",
"X.X.} { { n | = &.2.<.<.:.$.:.#.@.{ 7 { { L n : &.2.<.<.<.$.:.#.X.X.} ] { n | * &.3.<.<.>.#.:.#.#.{ 7 { { P n < ;.2.<.2.<.$.:.X."
};
