/* XPM */
static char *wallll[] = {
/* columns rows colors chars-per-pixel */
"64 64 12 1 ",
"  c #484848",
". c #4D4B4B",
"X c #514D4D",
"o c #515151",
"O c #535050",
"+ c #565454",
"@ c #585757",
"# c #5A5A5A",
"$ c gray36",
"% c #615F5F",
"& c #656565",
"* c gray44",
/* pixels */
"########************ ***************&###########################",
"###################* *#################@########################",
"###################* *#################+++######################",
"###################* *###################@++++++@###############",
"###################* *##########################################",
"###################* *##########################################",
"###################* *##########################################",
"#################### X##########################################",
"#################### X##########################################",
"#################### X##########################################",
"#################### X##########################################",
"#################### X##########################################",
"###################+ X##########################################",
"###################X X##########################################",
"###################X X@#########################################",
"#########+XXXXXXXXXX XXXXXXXXXXXXXXXXXX+########################",
"                                                                ",
"#########################*************$$*****************#######",
"#+O@#################################&$o########################",
"###O#################################&$o########################",
"###@O@###############################&$o########################",
"#####################################&$O########################",
"#####################################&$O########################",
"####################################$+ O########################",
"#####################################+.o########################",
"#####################################+.o########################",
"#####################################+.o########################",
"#####################################+.o########################",
"#####################################+.o########################",
"#####################################+.o########################",
"##################################$#$+.o########################",
"############################+XXXX.XXX..o########################",
"                                                                ",
"############************** ************************%XXXXXXXXXXXX",
"#########################* #####$###############################",
"#########################* #####################################",
"#########################* #####################################",
"#####################@@##* #####################################",
"#########@+#########@O###* #####################################",
"########+@@O+###@+O+@####* #####################################",
"############@++++########* #####################################",
"###############++@#######% #####################################",
"#########################X #####################################",
"#########################X #####################################",
"#########################X #####################################",
"#########################X #####################################",
"#########################X #####################################",
"##################XXXXXXXX #####################################",
"                                                                ",
"XXXXXXXXXXXXXXXXXXXXXXXXXX%******************$$*****************",
"############################################&$$&################",
"############################################&$$&################",
"############################################&$.+################",
"############################################&$.+################",
"############################################&$.+################",
"#############################@+++@######+O@#&$.+################",
"#################################++##++O@###&$.+################",
"###################################+.+#######o.+################",
"######################################+++@###o.+################",
"#########################################+###o.+################",
"#############################################o.+################",
"#############################################O.+################",
"#############################################o.+################",
"#############################################o.+################"
};
