/* XPM */
static char *yellow[] = {
/* columns rows colors chars-per-pixel */
"64 64 61 1 ",
"  c #59441D",
". c #695317",
"X c #75581B",
"o c #73631F",
"O c #5F4423",
"+ c #6A4827",
"@ c #6E4928",
"# c #6C4A28",
"$ c #754D2B",
"% c #764E2B",
"& c #774F2B",
"* c #774F2C",
"= c #784F2C",
"- c #735222",
"; c #755323",
": c #7B5525",
"> c #7E5726",
", c #785A26",
"< c #79502C",
"1 c #7B512D",
"2 c #7D522E",
"3 c #7F532F",
"4 c #815D1F",
"5 c #AF7B1F",
"6 c #845E20",
"7 c #875F21",
"8 c #845928",
"9 c #855A28",
"0 c #875B29",
"q c #865F2B",
"w c #895C2A",
"e c #8B5D2B",
"r c #866523",
"t c #8A6022",
"y c #8D6123",
"u c #8F6826",
"i c #8B6D27",
"p c #906324",
"a c #926425",
"s c #936525",
"d c #956626",
"f c #976727",
"g c #946B28",
"h c #916F29",
"j c #976C29",
"k c #9A6E2A",
"l c #9C6F2B",
"z c #94702A",
"x c #97712B",
"c c #9F762E",
"v c #A17022",
"b c #A37123",
"n c #A37625",
"m c #A67826",
"M c #A87927",
"N c #A1772F",
"B c #AD812B",
"V c #B48323",
"C c #B98B27",
"Z c #BE932B",
"A c #C39B2F",
/* pixels */
"gNkppNNNNNNNNNBmefNNNNfbfMMfffMbjNkapNNNNNNNNNBmwfNNNNfbfMMfffBm",
"CAZ5CAAAAAAAZVCCf5CAAA5bb5A555ZkCAA5CAAAAAAAZVCCf5CAAAVbb5Z555Cl",
"BZ5V5AZVAZAZ5VZBf55AA5vfea5C5CCfBAM55AA5AZAZ5VZBf55AZ5bfwdVCMCCd",
"NVf5VC55ZAA55ZAlf55555d$18555Z5aNVf55C55ZAA55ZAlf55555f==1555CVf",
"V51e5Z5CAAAZVAAfd55=8e3<$=2fb55fV52e5A5VAAAZVAAfd5533e2====f555d",
"l513fZCAAAA5CAAldM58d<1b=$efb55fl5=8fACAAAA5CAAls553f$2b==efv55d",
"BCf5bAVVVVZ5ZAZlBC55webMf1lff55fMZf5bA5VVVZ5ZAZkBC55ewb5f=bff55d",
"BV55CAA5V55VCA5blV5b2=2e8255b5b=MV55CAA5V55VCA5vkV5b8*=e2855b5b=",
"rriiir4,:774riiiyrijxxstwyy4riiuuriiur4,:4t4riiirrihxxpq0eytriii",
"VAAA5V5NC5ZVAAAZ5AAACC5CC5AAAAAAVAAA5V5NC5AVAAAZ5AAACC5CC5AAAAAA",
"C5AV555k55VVCACCV5ACM5VCV5AAAACMC5AV555l55VVCACCCVAC55VCV5AZAAC5",
"VC5b5b5ff5CAAACA5A5b5b5ff5AAAAVAVC5b5b5df5CAAACA5Z5b5b5ff5AAAAVA",
"Z55f555lf5CAAZAAA55b555Bf5AAAZAAZ55f555lf5CAAAAAZ55b555Bf5AAAZAA",
"5eeeff5MM5AAA5ZAMe=efb5BVVAAAAAZ5eewffMmm5AAA5ZA5e8efb5BVVAAAAAZ",
"531335b0C5ZAA55C58=8e550CVAAACVZ52228Mb8C5AAA55C5212e55wCVAAACVZ",
"a0$$$#$OjllNkacfdw=1111@mBNBNdNdd0*$$+=+flfNfdNsa011=3=#mBNBcfNf",
" o..Xrriyui>4ri-;4ytuzyyefe776r; o..Xrriiiu44ri-;777pjyywutt44r;",
"NAZ5VAAAAAAAZVVMf5VAAACbf5C555CNNAZ5VAAAAAAAAVVMa5VAAACbfVC555CN",
"NA5VVAZZAAACVVVBs55AZV5f8e5A5VCfNA5VVAZZAZAA5V5Bf55AA55f3fCC5VCf",
"NVb5CA55CAA55VZks55555f$$8bb5CCaNVb5CA55CAA55VAla55555f=&<b55CCf",
"N51d5C5VAAAA5AAld5Me8bd=$$8w555fN5<f5C5VAAAZVAAxf55e8bf=**2w555f",
"NM*8bZVAAAA5CAAff558w*02$$=8b55fN5$8bZVAAAAVCAAff5M8w1w=*==8b55f",
"NCefbAC5CAACCAAfVV5bebd5f85bf55fNCwdvAC5CZAVCAAfVV5bwlf5d35bf55f",
"NC55VAZV5AA5CACMMC552=wbe0bbf558NC55VAZVVZZVCACmMZ5521wbw0bbf559",
"8=10ae8==8==effeeefdea8ww=e88aa433<9fe3$$311effa0efffy990=e30aa7",
"VAAACCMNb55CAAAAVAAAAC5CC55ZAAAAVAAACC5Nb5VCZAAZVZAAZCVCC5VZZAAZ",
"CVZC555Nb5CCCACCVVAC55CC55AAAAC5CVZC555Nb5CCCACCVVAC55CCV5AZZACV",
"VC555b5af5AAAA5A5CV5bb5ffMAAAAV5VC555b5sf5ZAAAVA5CV5bb5ff5AAAAVV",
"CV5fV55ka5AAAAACZ55f555Mf5AAAAAACV5fV55ka5AAAAACZ55fV55Mf5ZAAAAZ",
"5fwwbb5Nl5AAA5CA5fee5b5CMVAAA5C55feebb5Nk5AAA5CA5fee5b5CMVAAA5C5",
"5e38eM5fC5AAACVA5812eM5dC5AAA5VA5e13e55fC5AAACVZ5333e55fC5ZAA5VZ",
"55fw8de+MAAC55555e2e8ff1BACCV55555fe3fe+BAZCV5555e3e3ff$BACCCV55",
"aNlppNNNNNNNNNBmwfNNNNfbfbMfffMmgNkysNNNNNNNNNBmwfNNNNfbfMmdffBm",
"CAA5CAAAAAAAAVCCf5CAAA5bbMA555ZlCAZ5CAAAAAAAZVCCf5CAAAVbb5Z555Cl",
"BZ5V5AA5AAAC55AMf55AA5bfefVC5CCfBZ5V5AZVAZAZ5VZBf55AZ5bdwfVCMCCd",
"NVf5VC55CAA55AAlf55555f===555CVaNVf5VC55ZAA55ZAlf55555f*=3555CVf",
"V51e5Z5CAAAAVAAfa5588w21==8fb55fV5<e5Z5CAAAZVAAfs5533e2=$$8f555d",
"l5=8dAVAAAA5CAAla552a12l==wfb55fk533fZCAAAA5CAAls553f$2b=$0fk55d",
"MCd5bAVVVVC5CAAxMC55eeb5f=bff55fBCf5bAVVVVZ5ZAZlBC55ewb5f8bff55d",
"BV55CAA5V55VCA5bl55b212e8=55b5b2BV55CAA5V55VCA5vkV5b8*2w8=55b5b=",
"uriiir4,1774rgiiurhhljuqr7p7riiirriiur4,:4t4riiirrizzzsewep7tuii",
"VAAA5V5NC5A5AAAZMAAACCMCC5AAAAAAVAAA5V5NC5AVAAAZ5AAACC5CCMAAAAAA",
"CMAV555x55VVCACCC5AC55VCV5AZAAC5C5AV555l55VVCACCCVAC55VC55AAAACM",
"VC5b5b5ff5CAAACA5A5b5b5ff5AAAAVAVC5b5b5df5CAAACA5Z5b5b5ff5AAAAVA",
"A5Md555lf5CAAZAAZ5Mb555Bf5AAAZAAZ55f555lf5CAAZAAZ55b555Bf5AAAAAA",
"5eewff5MM5AAA5AA5w8wfb5BVVAAAAAZ5eeeffMmm5AAA5ZA5e3efb5BVVAAAAAZ",
"58=885b0C5AAA55C58=8e55wCVAAACVZ52228Mb8C5ZAA55C5313e55wCVAAACVZ",
"e8$$$#@+fkfNkaNae83=3==$MBNMNdNds7$$$+=+fllNldcsa011=3=#mBNBNfnp",
" ,..Xrriiiu8XruX<777dx4d4d4d78r- X..Xrriiii67ri3;4yyujyyru4p44y;",
"NAA5VAAAAAAAAVVma5VAAACbfVC555CNNAA5VAAAAAAAZVVMa5VAAACbfVC555CN",
"NA555AZAAAAZVVVMa55AZC5f8fCC5VCaNA5VVAACAZAZVV5Mf55AZV5d2dCC5VCf",
"NVb5CA55CAA5MVZca555M5f%$=b55CCaNVb5CA55CAA55VAls55555f*=3bM5CCd",
"N5=f5C5VAAAAVAAlf55e8bf=$=2e555fN5<f5C5VAAAZ5AAla55e3bd*&&1e555f",
"N5$8vAVAAAAVCAAff558w=w===28b55fN5*8bA5AAAAVCAAff553e&71&<13b55f",
"NCefvAC5CCA5CAAfVV5bebf5f=5bf55fNCedbACMCZAVCAAfVV5bebf5f<5bf55f",
"NC555AA55AAVCACMMC5M11ebe0bbf550NC5M5AAVVZZVCACMBC553&ebewbbf55w",
"8==0fe21=8=80adaeeffde0002089dd48<10de1<=8=8efea0wfddp909<e1wds7",
"VAAACCMNbM5CAAAA5AAAAC5CC55CAAAAVAAACC5Nb55CAAAAVZAAZCVCC5VZZAAZ",
"CVAV555Nb5CCCA5C5CAC55CC55AACACVCVZC555Nb5CC5ACAVVAC55CCV5AZZACV",
"VC555b5df5AAAAVA5C55bb5ff5AAAAV5VC555b5dfbAAAA5A5CV5bv5ff5AAAAVV",
"CV5f555la5AAAAACA55fV55Mf5AAAAAACVMdV55kf5AAAAACA55dV55Mf5ZAAAAZ",
"5feebb5Nl5AAA5CA5eee5b5CMVAAA5C55fewbb5Nl5AAA5CA5dew5b5CMVAAA5C5",
"5e=8e55fC5AAACVA5822e55fC5AAA55A5e18e55dC5AAAC5AM88=wM5dC5ZAA5VZ",
"55fe8fe@MAAC5555Me8e8ff=MACVCV5555fe3fe+MAAC55555e8e8ff$BACCCV55"
};
